<svg id="구성_요소_8_2" data-name="구성 요소 8 – 2" xmlns="http://www.w3.org/2000/svg" width="33.613" height="29.783" viewBox="0 0 33.613 29.783">
  <g id="home-svgrepo-com">
    <g id="c14_house">
      <path id="패스_44" data-name="패스 44" d="M3.588,29.329a.7.7,0,0,0,.7.751c.915,0,8.473-.01,8.473-.01l.013-6.943s-.12-1.144.99-1.144h3.517a1.09,1.09,0,0,1,1.233,1.144L18.5,30.048H26.8a.869.869,0,0,0,.89-.935V16.31L16,5.913,3.588,16.311S3.588,29.329,3.588,29.329Z" transform="translate(0.982 -0.297)" fill="current"/>
      <path id="패스_45" data-name="패스 45" d="M0,16.55s1.052,1.941,3.351,0L17.083,4.933,29.956,16.478c2.659,1.918,3.657,0,3.657,0L17.083,1.5Z" transform="translate(0 -1.504)" fill="current"/>
      <path id="패스_46" data-name="패스 46" d="M23.984,4.175h-3.31l.014,4.016,3.3,2.8Z" transform="translate(5.659 -0.773)" fill="current"/>
    </g>
  </g>
</svg>
