<svg xmlns="http://www.w3.org/2000/svg" width="28" height="28" viewBox="0 0 28 28">
  <path id="info-svgrepo-com" d="M14,0A14,14,0,1,1,0,14,14,14,0,0,1,14,0Zm3.264,10.313a2.1,2.1,0,0,0-1.593-.575,5.908,5.908,0,0,0-2.281.588,9.518,9.518,0,0,0-3.542,3.2c-.169.234-.258.51.04.725.254.183.437.019.59-.144l.01-.011.035-.037c.172-.186.338-.379.5-.572l.042-.048.042-.048a6.736,6.736,0,0,1,1.679-1.536c.4-.23.687.125.626.524a3.61,3.61,0,0,1-.251.7c-.313.822-.63,1.642-.946,2.463-.346.9-.691,1.8-1.027,2.7l-.029.078-.029.078a19.809,19.809,0,0,0-.781,2.419,3.417,3.417,0,0,0-.064,2.125,1.231,1.231,0,0,0,.942.694,4.726,4.726,0,0,0,1.692-.034,6.339,6.339,0,0,0,.825-.248A7.927,7.927,0,0,0,16,22a12.923,12.923,0,0,0,1.851-1.958,2.01,2.01,0,0,0,.454-.767c.057-.272-.186-.661-.5-.5a1.693,1.693,0,0,0-.412.427q-.228.258-.464.509c-.313.335-.635.663-.957.989a2.607,2.607,0,0,1-.7.492c-.315.155-.566-.017-.532-.366a3.932,3.932,0,0,1,.219-.947c.442-1.22.892-2.437,1.339-3.656q.419-1.142.831-2.287a10,10,0,0,0,.566-2.177,1.754,1.754,0,0,0-.441-1.443Zm.929-5.855a2.428,2.428,0,0,0-3.188,1.776A2,2,0,0,0,16,8.525,2.4,2.4,0,0,0,19.385,6.38a1.891,1.891,0,0,0-1.192-1.922Z" fill="current" fill-rule="evenodd"/>
</svg>
