<svg xmlns="http://www.w3.org/2000/svg" width="9" height="11" viewBox="0 0 9 11">
  <g id="Pin" transform="translate(-0.129 0.248)">
    <path id="Combined_Shape" data-name="Combined Shape" d="M4.5,11h0A20.04,20.04,0,0,1,2.25,8.774C1.224,7.579,0,5.814,0,4.19A4.358,4.358,0,0,1,4.5,0,4.358,4.358,0,0,1,9,4.19c0,.9-.39,2.419-2.25,4.584A20.04,20.04,0,0,1,4.5,11Zm0-8.25A1.444,1.444,0,0,0,3,4.125,1.444,1.444,0,0,0,4.5,5.5,1.444,1.444,0,0,0,6,4.125,1.444,1.444,0,0,0,4.5,2.75Z" transform="translate(0.129 -0.248)" fill="#1cb3c8"/>
  </g>
</svg>
