<svg xmlns="http://www.w3.org/2000/svg" width="25.892" height="25.892" viewBox="0 0 25.892 25.892">
  <path id="more-hor-squre-svgrepo-com" d="M16.113,3.25h.167a54.046,54.046,0,0,1,6.558.227,6.97,6.97,0,0,1,4.246,1.832,6.971,6.971,0,0,1,1.832,4.246,54.072,54.072,0,0,1,.227,6.558v.167a54.073,54.073,0,0,1-.227,6.558,6.971,6.971,0,0,1-1.832,4.246,6.971,6.971,0,0,1-4.246,1.832,54.071,54.071,0,0,1-6.558.227h-.167a54.074,54.074,0,0,1-6.558-.227,6.971,6.971,0,0,1-4.246-1.832,6.97,6.97,0,0,1-1.832-4.246A54.046,54.046,0,0,1,3.25,16.28v-.167a54.047,54.047,0,0,1,.227-6.558A6.97,6.97,0,0,1,5.308,5.308,6.97,6.97,0,0,1,9.554,3.477,54.047,54.047,0,0,1,16.113,3.25ZM6.692,14.89A3.69,3.69,0,0,0,6.579,16.2,3.69,3.69,0,0,0,6.692,17.5a1.48,1.48,0,0,0,.8.8,3.691,3.691,0,0,0,1.306.113A3.691,3.691,0,0,0,10.1,18.3a1.48,1.48,0,0,0,.8-.8,3.69,3.69,0,0,0,.113-1.306,3.69,3.69,0,0,0-.113-1.306,1.48,1.48,0,0,0-.8-.8A3.691,3.691,0,0,0,8.8,13.977a3.691,3.691,0,0,0-1.306.113A1.48,1.48,0,0,0,6.692,14.89ZM13.977,16.2a3.691,3.691,0,0,1,.113-1.306,1.48,1.48,0,0,1,.8-.8,3.691,3.691,0,0,1,1.306-.113,3.691,3.691,0,0,1,1.306.113,1.48,1.48,0,0,1,.8.8,3.691,3.691,0,0,1,.113,1.306A3.691,3.691,0,0,1,18.3,17.5a1.48,1.48,0,0,1-.8.8,3.691,3.691,0,0,1-1.306.113A3.691,3.691,0,0,1,14.89,18.3a1.48,1.48,0,0,1-.8-.8A3.691,3.691,0,0,1,13.977,16.2Zm7.4,0a3.691,3.691,0,0,1,.113-1.306,1.48,1.48,0,0,1,.8-.8,3.691,3.691,0,0,1,1.306-.113,3.691,3.691,0,0,1,1.306.113,1.48,1.48,0,0,1,.8.8,3.691,3.691,0,0,1,.113,1.306A3.691,3.691,0,0,1,25.7,17.5a1.48,1.48,0,0,1-.8.8,3.691,3.691,0,0,1-1.306.113,3.691,3.691,0,0,1-1.306-.113,1.48,1.48,0,0,1-.8-.8A3.691,3.691,0,0,1,21.375,16.2Z" transform="translate(-3.25 -3.25)" fill="current" fill-rule="evenodd"/>
</svg>
